<svg width="13" height="18" viewBox="0 0 13 18" fill="none" xmlns="http://www.w3.org/2000/svg">
<path d="M7.37182 8.02449C6.74263 8.2916 6.02863 8.59446 5.10325 8.59446C4.71613 8.5937 4.33091 8.54103 3.95801 8.43789L4.59803 14.9545C4.62068 15.2268 4.74581 15.4809 4.94853 15.6659C5.15126 15.8511 5.41678 15.9538 5.69236 15.9537C5.69236 15.9537 6.59983 16.0005 6.90264 16.0005C7.22853 16.0005 8.20577 15.9537 8.20577 15.9537C8.4813 15.9537 8.74676 15.8509 8.94945 15.6659C9.15212 15.4807 9.27722 15.2268 9.29986 14.9545L9.98536 7.7534C9.67902 7.64964 9.36986 7.5807 9.02133 7.5807C8.41855 7.58047 7.93288 7.78635 7.37182 8.02449Z" fill="#925DFE"/>
<path d="M12.9461 4.64291L12.8499 4.1608C12.7633 3.72823 12.5671 3.3195 12.1194 3.16315C11.9759 3.11315 11.8129 3.09164 11.7029 2.98813C11.5929 2.8846 11.5603 2.72382 11.5349 2.57472C11.4879 2.30106 11.4435 2.02717 11.3952 1.75399C11.3536 1.51913 11.3205 1.25528 11.2119 1.03983C11.0706 0.750502 10.7772 0.581315 10.4854 0.469375C10.3359 0.414025 10.1833 0.367209 10.0285 0.329157C9.29961 0.138451 8.5333 0.068342 7.78346 0.0283913C6.88347 -0.0208552 5.98106 -0.00602454 5.0832 0.0727947C4.41491 0.133076 3.71104 0.206005 3.07598 0.435243C2.84386 0.519153 2.60469 0.619864 2.42819 0.797708C2.21164 1.01621 2.14094 1.35414 2.29905 1.62661C2.41146 1.82012 2.60187 1.95683 2.80381 2.04727C3.06685 2.1638 3.34156 2.25247 3.62337 2.31181C4.40808 2.48382 5.22083 2.55135 6.02249 2.58009C6.91102 2.61566 7.80099 2.58683 8.68528 2.49386C8.90396 2.47003 9.12225 2.44143 9.34015 2.4081C9.59676 2.36907 9.76147 2.03629 9.68584 1.80446C9.59534 1.52731 9.35217 1.4198 9.07716 1.46163C9.03664 1.46795 8.99634 1.47378 8.9558 1.47964L8.92659 1.48384C8.83343 1.49551 8.74027 1.50642 8.64711 1.51655C8.45466 1.53712 8.26176 1.55395 8.06837 1.56702C7.63526 1.59693 7.20095 1.61074 6.76689 1.61143C6.34038 1.61143 5.91362 1.59951 5.48804 1.57171C5.29387 1.55908 5.10017 1.54304 4.90694 1.52356C4.81904 1.51444 4.73139 1.50486 4.64372 1.49411L4.56031 1.48359L4.54217 1.48104L4.45568 1.46864C4.27894 1.44224 4.10221 1.41185 3.92737 1.37517C3.90973 1.37128 3.89393 1.36156 3.88263 1.34758C3.87132 1.3336 3.86515 1.3162 3.86515 1.29828C3.86515 1.28036 3.87132 1.26298 3.88263 1.249C3.89393 1.23502 3.90973 1.22528 3.92737 1.22139H3.93066C4.08219 1.18937 4.23488 1.16204 4.38804 1.13819C4.43911 1.13026 4.49033 1.12246 4.54169 1.11483H4.5431C4.63901 1.10851 4.7354 1.09147 4.83083 1.08024C5.66117 0.994588 6.49644 0.965388 7.3308 0.992849C7.73586 1.00452 8.14071 1.02813 8.54389 1.06879C8.63061 1.07768 8.71687 1.08703 8.80311 1.09753C8.83609 1.10151 8.86933 1.10619 8.90255 1.11016L8.96947 1.11974C9.16459 1.14855 9.35868 1.18354 9.55175 1.22468C9.83784 1.28636 10.2051 1.30646 10.3325 1.61728C10.3729 1.7159 10.3914 1.8255 10.4137 1.92903L10.4423 2.06105C10.443 2.06343 10.4436 2.06586 10.4439 2.06831C10.5114 2.37989 10.5788 2.69148 10.6463 3.00309C10.6513 3.02609 10.6514 3.04988 10.6466 3.07295C10.642 3.09601 10.6325 3.11786 10.6189 3.13713C10.6053 3.15641 10.5878 3.1727 10.5675 3.18497C10.5473 3.19725 10.5246 3.20525 10.5012 3.2085H10.4992L10.4581 3.2141L10.4173 3.21948C10.2881 3.23615 10.1588 3.25173 10.0294 3.26622C9.77444 3.29503 9.51908 3.31998 9.26332 3.341C8.75511 3.38292 8.24589 3.41042 7.73563 3.42349C7.47564 3.43036 7.21572 3.43355 6.95588 3.43307C5.92164 3.43227 4.88829 3.37266 3.86091 3.25453C3.74968 3.24144 3.63847 3.22743 3.52724 3.21316C3.61348 3.22416 3.46456 3.20476 3.4344 3.20055C3.36371 3.19074 3.29301 3.18054 3.22232 3.16993C2.98502 3.13465 2.74914 3.09118 2.51232 3.05309C2.226 3.00635 1.95218 3.02973 1.69322 3.16993C1.48063 3.28529 1.30858 3.46222 1.2 3.67705C1.08831 3.90607 1.05509 4.15543 1.00513 4.4015C0.955166 4.64759 0.877406 4.91236 0.906868 5.16498C0.970246 5.71019 1.35459 6.15328 1.90741 6.25236C2.42747 6.34583 2.95038 6.42157 3.47469 6.48605C5.5343 6.73622 7.61506 6.76615 9.68112 6.57534C9.84937 6.55974 10.0174 6.54277 10.1851 6.52439C10.2375 6.51868 10.2906 6.52465 10.3404 6.54191C10.3901 6.55916 10.4354 6.58722 10.4727 6.62405C10.5101 6.6609 10.5389 6.70557 10.5566 6.7548C10.5743 6.80403 10.5808 6.85657 10.5754 6.90859L10.523 7.41288C10.4176 8.43194 10.3123 9.45094 10.2069 10.4698C10.0969 11.5398 9.9862 12.6098 9.87483 13.6796C9.8434 13.981 9.81199 14.2822 9.78056 14.5834C9.7504 14.8798 9.74616 15.1859 9.68936 15.4789C9.59983 15.9396 9.28523 16.2228 8.8262 16.3262C8.40565 16.4211 7.97605 16.471 7.54476 16.4749C7.06664 16.4773 6.58874 16.4564 6.11063 16.4589C5.60022 16.4617 4.97504 16.4151 4.58104 16.0383C4.23488 15.7074 4.18705 15.1892 4.13992 14.7413C4.07707 14.1482 4.01479 13.5552 3.95305 12.9621L3.60665 9.66501L3.38254 7.5316C3.37879 7.49631 3.37501 7.46149 3.37147 7.42598C3.34462 7.17149 3.16293 6.92237 2.87663 6.93521C2.63154 6.94596 2.35302 7.15255 2.38177 7.42598L2.5479 9.00761L2.89146 12.2793C2.98934 13.2087 3.08698 14.1381 3.18438 15.0677C3.20323 15.2458 3.22091 15.4245 3.24069 15.6024C3.34838 16.5756 4.09773 17.1 5.0257 17.2476C5.5677 17.3342 6.12288 17.3519 6.67287 17.3608C7.37792 17.372 8.09005 17.3989 8.78356 17.2723C9.8112 17.0853 10.5822 16.4048 10.6922 15.3491C10.7237 15.0445 10.7552 14.7395 10.7865 14.4347C10.891 13.4264 10.9953 12.418 11.0995 11.4095L11.4401 8.11443L11.5965 6.60431C11.6042 6.52943 11.6362 6.45902 11.6874 6.40351C11.7387 6.348 11.8067 6.31032 11.8811 6.29607C12.175 6.23927 12.4558 6.1423 12.6649 5.92052C12.9977 5.5674 13.0639 5.10702 12.9461 4.64291ZM1.89233 4.96869C1.8968 4.96658 1.88856 5.00466 1.88503 5.02244C1.88432 4.99556 1.88573 4.97172 1.89233 4.96869ZM1.92084 5.18742C1.92321 5.18579 1.93027 5.19514 1.93757 5.20635C1.9265 5.19606 1.91943 5.18836 1.92061 5.18742H1.92084ZM1.94889 5.22411C1.95902 5.24118 1.96444 5.25193 1.94889 5.22411V5.22411ZM2.0052 5.26945H2.00662C2.00662 5.27109 2.00921 5.27272 2.01016 5.27435C2.00859 5.27256 2.00685 5.27091 2.00497 5.26945H2.0052ZM11.8675 5.20167C11.7619 5.30123 11.6027 5.34751 11.4457 5.37064C9.68301 5.63004 7.89469 5.76137 6.11274 5.70341C4.83743 5.66018 3.57554 5.51973 2.31295 5.34283C2.18924 5.32553 2.05517 5.30311 1.97009 5.21267C1.80985 5.04206 1.88856 4.69852 1.93027 4.49242C1.96844 4.30359 2.0415 4.0519 2.26795 4.02502C2.62142 3.9839 3.03192 4.13182 3.38161 4.1844C3.80263 4.24812 4.22522 4.29914 4.64939 4.33748C6.45961 4.50106 8.30023 4.47558 10.1025 4.23629C10.4309 4.19251 10.7582 4.14164 11.0843 4.08369C11.375 4.03203 11.697 3.93506 11.8727 4.23349C11.9931 4.43679 12.009 4.70881 11.9904 4.93853C11.9847 5.03862 11.9407 5.13277 11.8671 5.20167H11.8675Z" fill="#0D0C22"/>
</svg>
