<svg width="38" height="30" viewBox="0 0 38 30" fill="none" xmlns="http://www.w3.org/2000/svg">
<g opacity="0.7">
<rect width="38" height="6" rx="1" fill="#D9D9D9"/>
<rect x="1.72656" y="2" width="26.7727" height="2" fill="#7A7A7A"/>
<rect x="34.5449" y="2" width="1.72727" height="2" rx="0.4" fill="#7A7A7A"/>
<rect x="31.9541" y="2" width="1.72727" height="2" rx="0.4" fill="#7A7A7A"/>
<rect y="8" width="38" height="6" rx="1" fill="#D9D9D9"/>
<rect x="1.72656" y="10" width="26.7727" height="2" fill="#7A7A7A"/>
<rect x="34.5449" y="10" width="1.72727" height="2" rx="0.4" fill="#7A7A7A"/>
<rect x="31.9541" y="10" width="1.72727" height="2" rx="0.4" fill="#7A7A7A"/>
<rect y="16" width="38" height="6" rx="1" fill="#D9D9D9"/>
<rect x="1.72656" y="18" width="26.7727" height="2" fill="#7A7A7A"/>
<rect x="34.5449" y="18" width="1.72727" height="2" rx="0.4" fill="#7A7A7A"/>
<rect x="31.9541" y="18" width="1.72727" height="2" rx="0.4" fill="#7A7A7A"/>
<rect y="24" width="38" height="6" rx="1" fill="#D9D9D9"/>
<rect x="1.72656" y="26" width="26.7727" height="2" fill="#7A7A7A"/>
<rect x="34.5449" y="26" width="1.72727" height="2" rx="0.4" fill="#7A7A7A"/>
<rect x="31.9541" y="26" width="1.72727" height="2" rx="0.4" fill="#7A7A7A"/>
</g>
</svg>
