<svg width="26" height="26" viewBox="0 0 26 26" fill="none" xmlns="http://www.w3.org/2000/svg">
<rect x="0.25" y="0.25" width="25.5" height="25.5" rx="7.75" fill="white" stroke="#925DFE" stroke-width="0.5"/>
<path d="M6.88 18.15V17H11.75V18.15H6.88ZM16.2109 17.12C15.8175 17.12 15.4542 17.0433 15.1209 16.89C14.7942 16.73 14.5342 16.5033 14.3409 16.21L14.4709 15.95V17H13.2409V9.43H14.5509V12.64L14.3509 12.37C14.5375 12.0767 14.7909 11.85 15.1109 11.69C15.4309 11.5233 15.8009 11.44 16.2209 11.44C16.7342 11.44 17.1975 11.5667 17.6109 11.82C18.0242 12.0733 18.3509 12.4133 18.5909 12.84C18.8375 13.2667 18.9609 13.7467 18.9609 14.28C18.9609 14.8067 18.8409 15.2867 18.6009 15.72C18.3609 16.1533 18.0342 16.4967 17.6209 16.75C17.2075 16.9967 16.7375 17.12 16.2109 17.12ZM16.0609 15.92C16.3609 15.92 16.6275 15.85 16.8609 15.71C17.0942 15.57 17.2742 15.3767 17.4009 15.13C17.5342 14.8833 17.6009 14.6 17.6009 14.28C17.6009 13.96 17.5342 13.68 17.4009 13.44C17.2742 13.1933 17.0942 13 16.8609 12.86C16.6275 12.7133 16.3609 12.64 16.0609 12.64C15.7742 12.64 15.5142 12.71 15.2809 12.85C15.0542 12.99 14.8742 13.1867 14.7409 13.44C14.6142 13.6867 14.5509 13.9667 14.5509 14.28C14.5509 14.6 14.6142 14.8833 14.7409 15.13C14.8742 15.3767 15.0542 15.57 15.2809 15.71C15.5142 15.85 15.7742 15.92 16.0609 15.92Z" fill="#260073"/>
</svg>
