<svg width="20" height="20" viewBox="0 0 20 20" fill="none" xmlns="http://www.w3.org/2000/svg">
<rect width="20" height="20" rx="5" fill="#3B3B47"/>
<g clip-path="url(#clip0_140_311)">
<path d="M10 13.75C10.8313 13.75 11.6389 13.4738 12.2963 12.965C12.9536 12.4562 13.4233 11.7435 13.6317 10.9387M10 13.75C9.16875 13.75 8.36106 13.4738 7.70374 12.965C7.04642 12.4562 6.5767 11.7435 6.36834 10.9387M10 13.75C11.0354 13.75 11.875 12.0708 11.875 10C11.875 7.92917 11.0354 6.25 10 6.25M10 13.75C8.96459 13.75 8.125 12.0708 8.125 10C8.125 7.92917 8.96459 6.25 10 6.25M13.6317 10.9387C13.7088 10.6387 13.75 10.3242 13.75 10C13.751 9.35505 13.5849 8.72084 13.2679 8.15917M13.6317 10.9387C12.5206 11.5551 11.2705 11.8773 10 11.875C8.72946 11.8773 7.47938 11.5551 6.36834 10.9387M6.36834 10.9387C6.28941 10.6321 6.24965 10.3167 6.25 10C6.25 9.33125 6.425 8.70292 6.73209 8.15917M10 6.25C10.6651 6.24985 11.3182 6.42658 11.8925 6.76207C12.4667 7.09756 12.9414 7.57974 13.2679 8.15917M10 6.25C9.33493 6.24985 8.68178 6.42658 8.10752 6.76207C7.53327 7.09756 7.05856 7.57974 6.73209 8.15917M13.2679 8.15917C12.3608 8.94507 11.2002 9.37684 10 9.375C8.75084 9.375 7.60834 8.91667 6.73209 8.15917" stroke="white" stroke-width="0.75" stroke-linecap="round" stroke-linejoin="round"/>
</g>
<defs>
<clipPath id="clip0_140_311">
<rect width="10" height="10" fill="white" transform="translate(5 5)"/>
</clipPath>
</defs>
</svg>
