<svg width="10" height="10" viewBox="0 0 10 10" fill="none" xmlns="http://www.w3.org/2000/svg">
<path d="M6.14167 3.75L5.9975 7.5M4.0025 7.5L3.85833 3.75M8.01167 2.4125C8.15389 2.43417 8.29583 2.45723 8.4375 2.48167M8.01167 2.4125L7.56667 8.19709C7.5485 8.4326 7.44211 8.65257 7.26876 8.81302C7.09541 8.97347 6.86788 9.06257 6.63167 9.0625H3.36833C3.13212 9.06257 2.90459 8.97347 2.73124 8.81302C2.55789 8.65257 2.4515 8.4326 2.43333 8.19709L1.98833 2.4125M8.01167 2.4125C7.53078 2.33976 7.04741 2.28459 6.5625 2.24709M1.98833 2.4125C1.84611 2.43389 1.70417 2.45681 1.5625 2.48125M1.98833 2.4125C2.46922 2.33976 2.95259 2.28459 3.4375 2.24709M6.5625 2.24709V1.86542C6.5625 1.37375 6.18333 0.963754 5.69167 0.948337C5.23067 0.933613 4.76933 0.933613 4.30833 0.948337C3.81667 0.963754 3.4375 1.37417 3.4375 1.86542V2.24709M6.5625 2.24709C5.52236 2.16725 4.47764 2.16725 3.4375 2.24709" stroke="#820000" stroke-width="0.75" stroke-linecap="round" stroke-linejoin="round"/>
</svg>
